<svg width="25" height="25" viewBox="0 0 25 25" fill="none" xmlns="http://www.w3.org/2000/svg">
<path d="M3.56738 6.90796H5.56738H21.5674" stroke="#E81500" stroke-width="2" stroke-linecap="round" stroke-linejoin="round"/>
<path d="M8.56738 6.90796V4.90796C8.56738 4.37753 8.7781 3.86882 9.15317 3.49375C9.52824 3.11867 10.0369 2.90796 10.5674 2.90796H14.5674C15.0978 2.90796 15.6065 3.11867 15.9816 3.49375C16.3567 3.86882 16.5674 4.37753 16.5674 4.90796V6.90796M19.5674 6.90796V20.908C19.5674 21.4384 19.3567 21.9471 18.9816 22.3222C18.6065 22.6972 18.0978 22.908 17.5674 22.908H7.56738C7.03695 22.908 6.52824 22.6972 6.15317 22.3222C5.7781 21.9471 5.56738 21.4384 5.56738 20.908V6.90796H19.5674Z" stroke="#E81500" stroke-width="2" stroke-linecap="round" stroke-linejoin="round"/>
<path d="M10.5674 11.908V17.908" stroke="#E81500" stroke-width="2" stroke-linecap="round" stroke-linejoin="round"/>
<path d="M14.5674 11.908V17.908" stroke="#E81500" stroke-width="2" stroke-linecap="round" stroke-linejoin="round"/>
</svg>
